<svg
	xmlns="http://www.w3.org/2000/svg"
	xmlns:xlink="http://www.w3.org/1999/xlink"
	width="185px"
	height="22px"
>
	<path
		fill-rule="evenodd"
		fill="rgb(33, 33, 33)"
		d="M184.712,19.699 L178.424,19.699 L176.408,15.331 L174.320,15.331 L174.320,19.699 L168.751,19.699 L168.751,2.874 L176.888,2.874 C181.448,2.874 184.064,5.058 184.064,8.898 C184.064,11.346 183.128,13.171 181.400,14.227 L184.712,19.699 ZM176.888,7.098 L174.320,7.098 L174.320,11.107 L176.888,11.107 C178.088,11.107 178.784,10.363 178.784,9.066 C178.784,7.818 178.088,7.098 176.888,7.098 ZM153.152,19.939 C147.800,19.939 143.911,16.291 143.911,11.274 C143.911,6.282 147.800,2.706 153.152,2.706 C158.505,2.706 162.393,6.306 162.393,11.274 C162.393,16.267 158.505,19.939 153.152,19.939 ZM153.224,7.338 C151.280,7.338 149.624,8.994 149.624,11.298 C149.624,13.603 151.304,15.307 153.224,15.307 C155.144,15.307 156.680,13.603 156.680,11.298 C156.680,8.994 155.144,7.338 153.224,7.338 ZM131.984,2.874 L137.552,2.874 L137.552,19.699 L131.984,19.699 L131.984,2.874 ZM119.457,19.699 L117.441,15.331 L115.352,15.331 L115.352,19.699 L109.784,19.699 L109.784,2.874 L117.921,2.874 C122.481,2.874 125.097,5.058 125.097,8.898 C125.097,11.346 124.161,13.171 122.433,14.227 L125.745,19.699 L119.457,19.699 ZM117.921,7.098 L115.352,7.098 L115.352,11.107 L117.921,11.107 C119.121,11.107 119.817,10.363 119.817,9.066 C119.817,7.818 119.121,7.098 117.921,7.098 ZM88.424,2.874 L102.657,2.874 L102.657,7.098 L93.993,7.098 L93.993,9.162 L101.865,9.162 L101.865,13.386 L93.993,13.386 L93.993,15.475 L102.874,15.475 L102.874,19.699 L88.424,19.699 L88.424,2.874 ZM77.505,19.699 L71.937,19.699 L71.937,7.266 L67.160,7.266 L67.160,2.874 L82.306,2.874 L82.306,7.266 L77.505,7.266 L77.505,19.699 ZM49.761,11.107 L49.761,19.699 L44.697,19.699 L44.697,2.874 L49.353,2.874 L56.002,11.515 L56.002,2.874 L61.042,2.874 L61.042,19.699 L56.386,19.699 L49.761,11.107 ZM31.929,2.874 L37.498,2.874 L37.498,19.699 L31.929,19.699 L31.929,2.874 ZM12.063,12.656 L21.250,12.656 L21.250,21.844 L12.063,21.844 L12.063,12.656 ZM12.063,0.844 L21.250,0.844 L21.250,10.031 L12.063,10.031 L12.063,0.844 ZM0.250,12.656 L9.437,12.656 L9.437,21.844 L0.250,21.844 L0.250,12.656 ZM0.250,0.844 L9.437,0.844 L9.437,10.031 L0.250,10.031 L0.250,0.844 Z"
	/>
</svg>
